<svg xmlns="http://www.w3.org/2000/svg" width="22" height="22" viewBox="0 0 22 22"><g fill="none" fill-rule="nonzero"><circle cx="11" cy="11" r="11" fill="#F9F9FA"/><circle cx="11" cy="11" r="8.25" fill="#D70022"/><path fill="#FFF" d="M12.375 8.82l1.778 1.777c.537.537 1.407.537 1.944 0 .537-.537.537-1.407 0-1.944l-4.125-4.125c-.537-.537-1.407-.537-1.944 0L5.903 8.653c-.537.537-.537 1.407 0 1.944.537.537 1.407.537 1.944 0L9.625 8.82v7.68c0 .76.616 1.375 1.375 1.375.76 0 1.375-.616 1.375-1.375V8.82z"/></g></svg>