<svg xmlns="http://www.w3.org/2000/svg" xmlns:xlink="http://www.w3.org/1999/xlink" width="357" height="224" viewBox="0 0 357.43 224.4"><defs><mask id="mask" width="67.54" height="53.26" x="145.74" y="106.18" maskUnits="userSpaceOnUse"><g id="mask-14"><polygon id="path-13" fill="#fff" fill-rule="evenodd" points="145.74 106.18 213.29 106.18 213.29 159.43 145.74 159.43 145.74 106.18"/></g></mask></defs><title>privacy_multi-lock</title><style>@keyframes float-multilock{0%{transform:translatey(0)}50%{transform:translatey(-12px)}}@keyframes bounce{1.4%,3.8%,5.7%,6.7%{animation-timing-function:cubic-bezier(.215,.61,.355,1);transform:translate3d(0,0,0)}2.85%,3%{animation-timing-function:cubic-bezier(.755,.05,.855,.06);transform:translate3d(0,-15px,0)}5%{animation-timing-function:cubic-bezier(.755,.05,.855,.06);transform:translate3d(0,-7.5px,0)}6.4%{transform:translate3d(0,-4px,0)}}#mainlock{animation:float-multilock 5s ease-in-out infinite}#lock1{transform:translate3d(0,0,0);transform-origin:center bottom}#lock2{animation:bounce 14s infinite}#lock2,#lock3,#lock4,#lock5,#lock6{transform:translate3d(0,0,0);transform-origin:center bottom}#lock5{animation:bounce 14s .5s infinite}#lock1{animation:bounce 14s .8s infinite}#lock4{animation:bounce 14s 1s infinite}#lock3{animation:bounce 14s 1.25s infinite}#lock6{animation:bounce 14s both 1.5s infinite}</style><path id="browserbar" fill="#ccc" fill-rule="evenodd" d="M343.66,34.85H13.86V13.94A14,14,0,0,1,27.9,0H329.63a14,14,0,0,1,14,13.94Z"/><path id="browser" fill="#eaeaea" d="M133.71,34.85V.18H70V34.85H13.86V210.36a14,14,0,0,0,14,14H329.63a14,14,0,0,0,14-14V34.85Z"/><g id="lock6"><path fill="none" stroke="#200e3c" stroke-miterlimit="10" stroke-width="5.71" d="M336,95.24h0a9.9,9.9,0,0,0-10,9.81v15.88a10,10,0,0,0,20,0V105.05A9.91,9.91,0,0,0,336,95.24Z"/><path fill="#8f59ff" fill-rule="evenodd" d="M318.77,113.19h34.89a3.75,3.75,0,0,1,3.77,3.72v26a3.75,3.75,0,0,1-3.77,3.72H318.77a3.75,3.75,0,0,1-3.77-3.72v-26a3.75,3.75,0,0,1,3.77-3.72"/><path fill="#ffd65d" fill-rule="evenodd" d="M337.25,127.29a3.27,3.27,0,1,0-2.07,0l-2.13,6.34a1.82,1.82,0,0,0,1.69,2.41h2.95a1.81,1.81,0,0,0,1.69-2.41Z"/></g><g id="lock5"><path fill="none" stroke="#200e3c" stroke-miterlimit="10" stroke-width="5.71" d="M277,148.24h0a9.9,9.9,0,0,0-10,9.81v15.88a10,10,0,0,0,20,0V158.05A9.91,9.91,0,0,0,277,148.24Z"/><path fill="#8f59ff" fill-rule="evenodd" d="M259.77,166.19h34.89a3.75,3.75,0,0,1,3.77,3.72v26a3.75,3.75,0,0,1-3.77,3.72H259.77a3.75,3.75,0,0,1-3.77-3.72v-26a3.75,3.75,0,0,1,3.77-3.72"/><path fill="#ffd65d" fill-rule="evenodd" d="M278.25,180.29a3.27,3.27,0,1,0-2.07,0l-2.13,6.34a1.82,1.82,0,0,0,1.69,2.41h2.95a1.81,1.81,0,0,0,1.69-2.41Z"/></g><g id="lock4"><path fill="none" stroke="#200e3c" stroke-miterlimit="10" stroke-width="5.71" d="M277,43.24h0a9.9,9.9,0,0,0-10,9.81V68.93a10,10,0,0,0,20,0V53.05A9.91,9.91,0,0,0,277,43.24Z"/><path fill="#8f59ff" fill-rule="evenodd" d="M259.77,61.19h34.89a3.75,3.75,0,0,1,3.77,3.72v26a3.75,3.75,0,0,1-3.77,3.72H259.77A3.75,3.75,0,0,1,256,90.93v-26a3.75,3.75,0,0,1,3.77-3.72"/><path fill="#ffd65d" fill-rule="evenodd" d="M278.25,75.29a3.27,3.27,0,1,0-2.07,0l-2.13,6.34A1.82,1.82,0,0,0,275.74,84h2.95a1.81,1.81,0,0,0,1.69-2.41Z"/></g><g id="lock3"><path fill="none" stroke="#200e3c" stroke-miterlimit="10" stroke-width="5.71" d="M80,148.24h0a9.9,9.9,0,0,0-10,9.81v15.88a10,10,0,0,0,20,0V158.05A9.91,9.91,0,0,0,80,148.24Z"/><path fill="#8f59ff" fill-rule="evenodd" d="M62.77,166.19H97.66a3.75,3.75,0,0,1,3.77,3.72v26a3.75,3.75,0,0,1-3.77,3.72H62.77A3.75,3.75,0,0,1,59,195.93v-26a3.75,3.75,0,0,1,3.77-3.72"/><path fill="#ffd65d" d="M81.25,180.29a3.27,3.27,0,1,0-2.07,0l-2.13,6.34A1.82,1.82,0,0,0,78.74,189h3a1.81,1.81,0,0,0,1.69-2.41Z"/></g><g id="lock2"><path fill="none" stroke="#200e3c" stroke-miterlimit="10" stroke-width="5.71" d="M80,43.24h0a9.9,9.9,0,0,0-10,9.81V68.93a10,10,0,0,0,20,0V53.05A9.91,9.91,0,0,0,80,43.24Z"/><path fill="#8f59ff" fill-rule="evenodd" d="M62.77,61.19H97.66a3.75,3.75,0,0,1,3.77,3.72v26a3.75,3.75,0,0,1-3.77,3.72H62.77A3.75,3.75,0,0,1,59,90.93v-26a3.75,3.75,0,0,1,3.77-3.72"/><path fill="#ffd65d" d="M81.25,75.29a3.27,3.27,0,1,0-2.07,0l-2.13,6.34A1.82,1.82,0,0,0,78.74,84h3a1.81,1.81,0,0,0,1.69-2.41Z"/></g><g id="lock1"><path fill="none" stroke="#200e3c" stroke-miterlimit="10" stroke-width="5.71" d="M21,95.24h0a9.9,9.9,0,0,0-10,9.81v15.88a10,10,0,0,0,20,0V105.05A9.91,9.91,0,0,0,21,95.24Z"/><path fill="#8f59ff" fill-rule="evenodd" d="M3.77,113.19H38.66a3.75,3.75,0,0,1,3.77,3.72v26a3.75,3.75,0,0,1-3.77,3.72H3.77A3.75,3.75,0,0,1,0,142.93v-26a3.75,3.75,0,0,1,3.77-3.72"/><path fill="#ffd65d" fill-rule="evenodd" d="M22.25,127.29a3.27,3.27,0,1,0-2.07,0l-2.13,6.34A1.82,1.82,0,0,0,19.74,136h3a1.81,1.81,0,0,0,1.69-2.41Z"/></g><g id="mainlock"><g id="lock"><path fill="none" stroke="#200e3c" stroke-linecap="round" stroke-width="7.14" d="M195.1,118.49V93.21A15.76,15.76,0,0,0,179.19,77.6h0a15.76,15.76,0,0,0-15.91,15.61v25.28"/><g mask="url(#mask)"><path fill="#8f59ff" fill-rule="evenodd" d="M151.75,106.18h55.53a6,6,0,0,1,6,5.92v41.42a6,6,0,0,1-6,5.91H151.75a6,6,0,0,1-6-5.91V112.1a6,6,0,0,1,6-5.92"/></g><path fill="#ffd65d" fill-rule="evenodd" d="M181.16,128.62a5.2,5.2,0,1,0-3.29,0l-3.39,10.09a2.89,2.89,0,0,0,2.69,3.84h4.69a2.9,2.9,0,0,0,2.7-3.84Z"/></g></g></svg>