<svg xmlns="http://www.w3.org/2000/svg" width="48" height="47" viewbox="0 0 48 47"><defs><linearGradient id="a" x1="100%" x2="44.703%" y1="0%" y2="91.049%"><stop offset="0%" stop-color="#05C8E5"/><stop offset="0%" stop-color="#05C5E6"/><stop offset="100%" stop-color="#008BFF"/></linearGradient><linearGradient id="b" x1="70.61%" x2="12.176%" y1="-11.044%" y2="100%"><stop offset="0%" stop-color="#05C8E5"/><stop offset="19.64%" stop-color="#05C4E7"/><stop offset="100%" stop-color="#008BFF"/></linearGradient></defs><g fill="none" fill-rule="nonzero"><path fill="url(#a)" d="M23.679 43.888l2.961-2.984-2.563-2.58-2.955 2.98c-1.976 1.992-5.42 1.992-7.392 0l-9.392-9.453a.759.759 0 01.006-1.068l6.124-6.17-2.565-2.58L1.785 28.2a4.434 4.434 0 00-.006 6.236l9.382 9.452A8.763 8.763 0 0017.42 46.5a8.758 8.758 0 006.259-2.612z"/><path fill="url(#b)" d="M46.648 14.572L33.986 1.757c-1.656-1.674-4.579-1.678-6.239 0L12.115 17.58l1.291 1.308 16.32 16.52 1.293 1.308 15.626-15.819a4.482 4.482 0 001.294-3.162 4.48 4.48 0 00-1.291-3.163z"/></g></svg>