<svg xmlns="http://www.w3.org/2000/svg" width="46" height="46"><defs><linearGradient id="a" x1="0%" x2="46.909%" y1="84.93%" y2="17.567%"><stop offset="0%" stop-color="#1D8BF0"/><stop offset="42.088%" stop-color="#4084F4"/><stop offset="100%" stop-color="#AB71FF"/></linearGradient><linearGradient id="b" x1="-86.257%" x2="68.825%" y1="206.261%" y2="25.032%"><stop offset="0%" stop-color="#1D8BF0"/><stop offset="30.205%" stop-color="#4084F4"/><stop offset="100%" stop-color="#AB71FF"/></linearGradient><linearGradient id="c" x1="-157.222%" x2="-63.532%" y1="146.445%" y2="59.706%"><stop offset="0%" stop-color="#1D8BF0"/><stop offset="44.299%" stop-color="#4084F4"/><stop offset="100%" stop-color="#AB71FF"/></linearGradient></defs><g fill="none" fill-rule="evenodd" stroke-width="3.094"><path stroke="url(#a)" d="M19.94 8.593L.303 41.076c-.503.832.115 1.878 1.109 1.878h39.272c.993 0 1.612-1.046 1.11-1.878L22.157 8.593c-.496-.821-1.722-.821-2.219 0z" transform="translate(1.912 1.314)"/><path stroke="url(#b)" stroke-linejoin="round" d="M27.32 17.133l-5.162-8.54c-.497-.821-1.722-.821-2.219 0l-5.161 8.54-.46.76L17 21.578c.199.274.607.274.806 0l3.237-4.444 3.237 4.444c.2.274.608.274.806 0l2.689-3.69-.456-.754z" transform="translate(1.912 1.314)"/><path stroke="url(#c)" stroke-linejoin="round" d="M21.049.796v6.95c0 .302.245.547.547.547h12.796a.546.546 0 00.387-.933L31.695 4.27l3.083-3.088a.547.547 0 00-.386-.933H21.595a.544.544 0 00-.546.546z" transform="translate(1.912 1.314)"/></g></svg>