<svg xmlns="http://www.w3.org/2000/svg" width="51" height="33"><defs><linearGradient id="a" x1="20.606%" x2="88.227%" y1="85.367%" y2="30.01%"><stop offset="0%" stop-color="#591DCE"/><stop offset="100%" stop-color="#C785FF"/><stop offset="100%" stop-color="#C785FF"/></linearGradient><linearGradient id="b" x1="-42.659%" x2="100%" y1="110.868%" y2="-19.498%"><stop offset="0%" stop-color="#591DCE"/><stop offset="100%" stop-color="#C785FF"/><stop offset="100%" stop-color="#C785FF"/></linearGradient><linearGradient id="c" x1="-102.135%" x2="129.449%" y1="163.294%" y2="-56.189%"><stop offset="0%" stop-color="#591DCE"/><stop offset="100%" stop-color="#C785FF"/><stop offset="100%" stop-color="#C785FF"/></linearGradient></defs><g fill="none" fill-rule="evenodd"><path stroke="url(#a)" stroke-width="3" d="M46.459 12.295a3.55 3.55 0 010 5.163c-4.047 3.824-12.563 10.549-22.413 10.549S5.682 21.282 1.634 17.458a3.552 3.552 0 010-5.163C5.682 8.471 14.196 1.747 24.046 1.747s18.366 6.724 22.413 10.548z" transform="translate(1 1.5)"/><path stroke="url(#b)" stroke-linecap="round" stroke-linejoin="round" stroke-width="3" d="M38.089.522L9.37 29.241" transform="translate(1 1.5)"/><path stroke="url(#c)" stroke-width="2.557" d="M31.39 14.877a7.342 7.342 0 01-7.344 7.342 7.342 7.342 0 01-7.342-7.342 7.342 7.342 0 1114.685 0z" transform="translate(1 1.5)"/></g></svg>