<svg xmlns="http://www.w3.org/2000/svg" width="159" height="9" viewBox="0 0 159 9"><defs><filter id="b" width="108.7%" height="120.1%" x="-4.4%" y="-10.1%" filterUnits="objectBoundingBox"><feOffset dy="2" in="SourceAlpha" result="shadowOffsetOuter1"/><feGaussianBlur in="shadowOffsetOuter1" result="shadowBlurOuter1" stdDeviation="8"/><feColorMatrix in="shadowBlurOuter1" result="shadowMatrixOuter1" values="0 0 0 0 0.125490196 0 0 0 0 0.0705882353 0 0 0 0 0.22745098 0 0 0 0.24 0"/><feMerge><feMergeNode in="shadowMatrixOuter1"/><feMergeNode in="SourceGraphic"/></feMerge></filter><linearGradient id="a" x1="1" x2="0" y1=".5" y2=".503"><stop offset="0" stop-color="#FF9100"/><stop offset=".5" stop-color="#F10366"/><stop offset="1" stop-color="#6173FF"/></linearGradient></defs><g fill="none" fill-rule="evenodd" stroke="url(#a)" stroke-linecap="round" stroke-width="3" transform="matrix(1.0343 0 0 .79891 -711.622 -1801.28)"><path d="M688.657 2264.211c7.242-1.177 14.478-4.676 21.725-3.532 2.712.429 3.32 5.594 11.031 4.032 16.339-3.309 6.765.754 23.006-3.015 16.24-3.768 12.357 4.952 20.355 3.454 13.997-2.622 7.673-2.764 21.655-5.463 14.96-2.889 27.905-5.713 28.548 1.707.059.676.931 1.216 1.606 1.243 7.157.277 17.827-4.531 23.074-6.312" vector-effect="non-scaling-stroke"/></g></svg>